<svg width="20" height="20" viewBox="0 0 20 20" fill="none" xmlns="http://www.w3.org/2000/svg">
<path d="M19.2857 14.2857H17.8571V11.4285C17.8571 11.034 17.5373 10.7142 17.1428 10.7142H10.7143V5.71427H14.2857C14.6802 5.71427 15 5.39447 15 4.99997V0.714257C15 0.319796 14.6802 0 14.2857 0H5.71427C5.31977 0 4.99997 0.319796 4.99997 0.714299V5.00001C4.99997 5.39451 5.31977 5.71431 5.71427 5.71431H9.28568V10.7143H2.85711C2.46261 10.7143 2.14281 11.0341 2.14281 11.4286V14.2857H0.714299C0.319796 14.2857 0 14.6055 0 15V19.2857C0 19.6802 0.319796 20 0.714299 20H5.00001C5.39451 20 5.71431 19.6802 5.71431 19.2857V15C5.71431 14.6055 5.39451 14.2857 5.00001 14.2857H3.57141V12.1428H9.28568V14.2857H7.85712C7.46262 14.2857 7.14282 14.6055 7.14282 15V19.2857C7.14282 19.6802 7.46262 20 7.85712 20H12.1428C12.5373 20 12.8571 19.6802 12.8571 19.2857V15C12.8571 14.6055 12.5373 14.2857 12.1428 14.2857H10.7143V12.1428H16.4285V14.2857H15C14.6055 14.2857 14.2857 14.6055 14.2857 15V19.2857C14.2857 19.6802 14.6055 20 15 20H19.2857C19.6802 20 20 19.6802 20 19.2857V15C20 14.6055 19.6802 14.2857 19.2857 14.2857ZM4.28571 15.7143V18.5714H1.42856V15.7143H4.28571ZM11.4286 15.7143V18.5714H8.57142V15.7143H11.4286ZM6.42857 4.28571V1.42856H13.5714V4.28571H6.42857ZM18.5714 18.5714H15.7142V15.7142H18.5714V18.5714Z" fill="#C2CFE0"/>
</svg>
