<svg width="20" height="20" viewBox="0 0 20 20" fill="none" xmlns="http://www.w3.org/2000/svg">
<g clip-path="url(#clip0)">
<path d="M10 5C11.0233 5 20 4.93 20 2.5C20 0.0700001 11.0233 0 10 0C8.97667 0 0 0.0700001 0 2.5C0 4.93 8.97667 5 10 5ZM18.6767 2.5C18.0667 2.97333 15.1392 3.75 10 3.75C4.86083 3.75 1.93333 2.97333 1.32333 2.5C1.93333 2.02667 4.86083 1.25 10 1.25C15.1392 1.25 18.0667 2.02667 18.6767 2.5ZM1.2275 2.59667H1.21917H1.2275Z" fill="#C2CFE0"/>
<path d="M10 10C11.0233 10 20 9.93 20 7.5C20 7.155 19.72 6.875 19.375 6.875C19.0542 6.875 18.79 7.11667 18.7542 7.42833C18.3692 7.88917 15.4108 8.75 10 8.75C4.58917 8.75 1.63083 7.88917 1.24583 7.42833C1.21 7.11667 0.945833 6.875 0.625 6.875C0.280001 6.875 0 7.155 0 7.5C0 9.93 8.97667 10 10 10ZM1.25 7.49917C1.25 7.5 1.25 7.5 1.25 7.49917V7.49917ZM18.75 7.49917C18.75 7.5 18.75 7.5 18.75 7.49917V7.49917Z" fill="#C2CFE0"/>
<path d="M10 15C11.0233 15 20 14.93 20 12.5C20 12.155 19.72 11.875 19.375 11.875C19.0542 11.875 18.79 12.1167 18.7542 12.4283C18.3692 12.8892 15.4108 13.75 10 13.75C4.58917 13.75 1.63083 12.8892 1.24583 12.4283C1.21 12.1167 0.945833 11.875 0.625 11.875C0.280001 11.875 0 12.155 0 12.5C0 14.93 8.97667 15 10 15ZM1.25 12.4992C1.25 12.5 1.25 12.5 1.25 12.4992V12.4992ZM18.75 12.4992C18.75 12.5 18.75 12.5 18.75 12.4992V12.4992Z" fill="#C2CFE0"/>
<path d="M10 20C11.0233 20 20 19.93 20 17.5V2.5C20 2.155 19.72 1.875 19.375 1.875C19.03 1.875 18.75 2.155 18.75 2.5V17.4325C18.3492 17.8958 15.3917 18.75 10 18.75C4.60833 18.75 1.65083 17.8958 1.25 17.4325V2.5C1.25 2.155 0.970001 1.875 0.625 1.875C0.280001 1.875 0 2.155 0 2.5V17.5C0 19.93 8.97667 20 10 20Z" fill="#C2CFE0"/>
<path d="M15.8334 12.5C15.3731 12.5 15 12.1269 15 11.6667C15 11.2064 15.3731 10.8333 15.8334 10.8333C16.2936 10.8333 16.6667 11.2064 16.6667 11.6667C16.6667 12.1269 16.2936 12.5 15.8334 12.5Z" fill="#C2CFE0"/>
<path d="M15.8334 7.49998C15.3731 7.49998 15 7.12688 15 6.66665C15 6.20641 15.3731 5.83331 15.8334 5.83331C16.2936 5.83331 16.6667 6.20641 16.6667 6.66665C16.6667 7.12688 16.2936 7.49998 15.8334 7.49998Z" fill="#C2CFE0"/>
<path d="M15.8334 17.5C15.3731 17.5 15 17.1269 15 16.6667C15 16.2064 15.3731 15.8333 15.8334 15.8333C16.2936 15.8333 16.6667 16.2064 16.6667 16.6667C16.6667 17.1269 16.2936 17.5 15.8334 17.5Z" fill="#C2CFE0"/>
</g>
<defs>
<clipPath id="clip0">
<rect width="20" height="20" fill="#C2CFE0" transform="matrix(-1 0 0 1 20 0)"/>
</clipPath>
</defs>
</svg>
