<svg fill="#C2CFE0" height="512pt" viewBox="0 -26 512 512" width="512pt" xmlns="http://www.w3.org/2000/svg"><path d="m238.933594 85.332031h256c9.425781 0 17.066406-7.632812 17.066406-17.066406s-7.640625-17.066406-17.066406-17.066406h-256c-9.425782 0-17.066406 7.632812-17.066406 17.066406s7.640624 17.066406 17.066406 17.066406zm0 0"/><path d="m17.066406 85.332031h36.558594c7.628906 29.363281 34.125 51.203125 65.839844 51.203125 37.644531 0 68.269531-30.621094 68.269531-68.269531s-30.625-68.265625-68.269531-68.265625c-31.714844 0-58.210938 21.835938-65.839844 51.199219h-36.558594c-9.425781 0-17.066406 7.632812-17.066406 17.066406s7.640625 17.066406 17.066406 17.066406zm102.398438-51.199219c18.828125 0 34.136718 15.316407 34.136718 34.132813s-15.308593 34.132813-34.136718 34.132813c-18.824219 0-34.132813-15.316407-34.132813-34.132813s15.308594-34.132813 34.132813-34.132813zm0 0"/><path d="m273.066406 375.464844h-256c-9.425781 0-17.066406 7.636718-17.066406 17.070312s7.640625 17.066406 17.066406 17.066406h256c9.425782 0 17.066406-7.632812 17.066406-17.066406s-7.640624-17.070312-17.066406-17.070312zm0 0"/><path d="m494.933594 375.464844h-36.558594c-7.632812-29.363282-34.128906-51.199219-65.839844-51.199219-37.644531 0-68.269531 30.617187-68.269531 68.269531 0 37.648438 30.625 68.265625 68.269531 68.265625 31.714844 0 58.210938-21.835937 65.839844-51.199219h36.558594c9.425781 0 17.066406-7.632812 17.066406-17.066406s-7.640625-17.070312-17.066406-17.070312zm-102.398438 51.203125c-18.828125 0-34.136718-15.320313-34.136718-34.132813 0-18.816406 15.308593-34.136718 34.136718-34.136718 18.824219 0 34.132813 15.320312 34.132813 34.136718 0 18.8125-15.308594 34.132813-34.132813 34.132813zm0 0"/><path d="m494.933594 221.867188h-136.535156c-9.421876 0-17.066407 7.632812-17.066407 17.066406s7.644531 17.066406 17.066407 17.066406h136.535156c9.425781 0 17.066406-7.632812 17.066406-17.066406s-7.640625-17.066406-17.066406-17.066406zm0 0"/><path d="m17.066406 256h170.667969c9.425781 0 17.066406-7.632812 17.066406-17.066406s-7.640625-17.066406-17.066406-17.066406h-170.667969c-9.425781 0-17.066406 7.632812-17.066406 17.066406s7.640625 17.066406 17.066406 17.066406zm0 0"/><path d="m238.933594 307.199219c-37.644532 0-68.265625-30.617188-68.265625-68.265625 0-37.648438 30.621093-68.265625 68.265625-68.265625 37.640625 0 68.265625 30.617187 68.265625 68.265625 0 37.648437-30.625 68.265625-68.265625 68.265625zm0-102.398438c-18.824219 0-34.132813 15.316407-34.132813 34.132813s15.308594 34.132812 34.132813 34.132812c18.824218 0 34.132812-15.316406 34.132812-34.132812s-15.308594-34.132813-34.132812-34.132813zm0 0"/></svg>