<svg width="26" height="26" viewBox="0 0 26 26" fill="none" xmlns="http://www.w3.org/2000/svg">
<path d="M13 0C5.83172 0 0 5.83172 0 13C0 20.1683 5.83172 26 13 26C20.1683 26 26 20.1683 26 13C26 5.83172 20.1683 0 13 0ZM13 24.1429C6.85562 24.1429 1.85712 19.1444 1.85712 13C1.85712 6.85562 6.85562 1.85712 13 1.85712C19.1444 1.85712 24.1429 6.85562 24.1429 13C24.1429 19.1444 19.1444 24.1429 13 24.1429Z" fill="white"/>
<path d="M13 6.80951C12.4871 6.80951 12.0714 7.2252 12.0714 7.7381V18.2619C12.0714 18.7748 12.4871 19.1905 13 19.1905C13.5129 19.1905 13.9286 18.7748 13.9286 18.2619V7.7381C13.9286 7.2252 13.5129 6.80951 13 6.80951Z" fill="white"/>
<path d="M18.2619 12.0714H7.7381C7.2252 12.0714 6.80951 12.4871 6.80951 13C6.80951 13.5129 7.2252 13.9286 7.7381 13.9286H18.2619C18.7748 13.9286 19.1905 13.5129 19.1905 13C19.1905 12.4871 18.7748 12.0714 18.2619 12.0714Z" fill="white"/>
</svg>
