<svg width="161" height="44" viewBox="0 0 161 44" fill="none" xmlns="http://www.w3.org/2000/svg">
<path d="M58.88 15.656C60.368 15.656 61.56 16.048 62.456 16.832C63.368 17.6 63.92 18.64 64.112 19.952H62.024C61.928 19.168 61.6 18.528 61.04 18.032C60.496 17.52 59.76 17.264 58.832 17.264C58.048 17.264 57.432 17.456 56.984 17.84C56.552 18.208 56.336 18.712 56.336 19.352C56.336 19.832 56.48 20.224 56.768 20.528C57.072 20.816 57.44 21.04 57.872 21.2C58.32 21.344 58.928 21.504 59.696 21.68C60.672 21.904 61.456 22.136 62.048 22.376C62.656 22.6 63.168 22.968 63.584 23.48C64.016 23.992 64.232 24.68 64.232 25.544C64.232 26.616 63.824 27.488 63.008 28.16C62.208 28.832 61.136 29.168 59.792 29.168C58.224 29.168 56.944 28.792 55.952 28.04C54.96 27.288 54.376 26.24 54.2 24.896H56.312C56.392 25.696 56.736 26.344 57.344 26.84C57.968 27.336 58.784 27.584 59.792 27.584C60.544 27.584 61.128 27.392 61.544 27.008C61.976 26.624 62.192 26.12 62.192 25.496C62.192 24.984 62.04 24.576 61.736 24.272C61.432 23.968 61.056 23.736 60.608 23.576C60.16 23.416 59.544 23.248 58.76 23.072C57.784 22.848 57 22.624 56.408 22.4C55.832 22.176 55.336 21.824 54.92 21.344C54.52 20.848 54.32 20.184 54.32 19.352C54.32 18.248 54.728 17.36 55.544 16.688C56.36 16 57.472 15.656 58.88 15.656Z" fill="white"/>
<path d="M72.9824 15.656C74.6624 15.656 76.0544 16.104 77.1584 17C78.2624 17.896 78.9424 19.096 79.1985 20.6H76.8944C76.7344 19.656 76.2944 18.92 75.5744 18.392C74.8704 17.848 73.9904 17.576 72.9344 17.576C72.1664 17.576 71.4624 17.752 70.8224 18.104C70.1984 18.456 69.6945 19 69.3105 19.736C68.9265 20.456 68.7345 21.352 68.7345 22.424C68.7345 23.496 68.9265 24.4 69.3105 25.136C69.6945 25.856 70.1984 26.392 70.8224 26.744C71.4624 27.096 72.1664 27.272 72.9344 27.272C73.9904 27.272 74.8704 27 75.5744 26.456C76.2944 25.912 76.7344 25.168 76.8944 24.224H79.1985C78.9424 25.744 78.2624 26.952 77.1584 27.848C76.0544 28.728 74.6624 29.168 72.9824 29.168C71.7184 29.168 70.5985 28.896 69.6225 28.352C68.6465 27.808 67.8784 27.032 67.3184 26.024C66.7744 25 66.5024 23.8 66.5024 22.424C66.5024 21.048 66.7744 19.848 67.3184 18.824C67.8784 17.8 68.6465 17.016 69.6225 16.472C70.5985 15.928 71.7184 15.656 72.9824 15.656Z" fill="white"/>
<path d="M88.9927 15.608C90.5287 15.608 91.7687 16.104 92.7127 17.096C93.6567 18.072 94.1287 19.488 94.1287 21.344V29H91.9447V21.536C91.9447 20.224 91.6087 19.216 90.9367 18.512C90.2647 17.808 89.3527 17.456 88.2007 17.456C87.0007 17.456 86.0407 17.848 85.3207 18.632C84.6007 19.4 84.2407 20.528 84.2407 22.016V29H82.0567V11.24H84.2407V18.944C84.5767 17.872 85.1687 17.048 86.0167 16.472C86.8807 15.896 87.8727 15.608 88.9927 15.608Z" fill="white"/>
<path d="M103.455 15.656C104.719 15.656 105.847 15.928 106.839 16.472C107.847 17.016 108.631 17.8 109.191 18.824C109.767 19.848 110.055 21.048 110.055 22.424C110.055 23.8 109.767 25 109.191 26.024C108.631 27.032 107.847 27.808 106.839 28.352C105.847 28.896 104.719 29.168 103.455 29.168C102.191 29.168 101.055 28.896 100.047 28.352C99.0546 27.808 98.2706 27.032 97.6946 26.024C97.1186 25 96.8306 23.8 96.8306 22.424C96.8306 21.048 97.1186 19.848 97.6946 18.824C98.2706 17.8 99.0546 17.016 100.047 16.472C101.055 15.928 102.191 15.656 103.455 15.656ZM103.455 17.576C102.671 17.576 101.943 17.752 101.271 18.104C100.615 18.456 100.079 19 99.6626 19.736C99.2626 20.456 99.0626 21.352 99.0626 22.424C99.0626 23.48 99.2626 24.376 99.6626 25.112C100.079 25.832 100.615 26.368 101.271 26.72C101.943 27.072 102.671 27.248 103.455 27.248C104.239 27.248 104.959 27.072 105.615 26.72C106.287 26.368 106.823 25.832 107.223 25.112C107.639 24.376 107.847 23.48 107.847 22.424C107.847 21.352 107.639 20.456 107.223 19.736C106.823 19 106.287 18.456 105.615 18.104C104.959 17.752 104.239 17.576 103.455 17.576Z" fill="white"/>
<path d="M118.876 15.656C120.14 15.656 121.268 15.928 122.26 16.472C123.268 17.016 124.052 17.8 124.612 18.824C125.188 19.848 125.476 21.048 125.476 22.424C125.476 23.8 125.188 25 124.612 26.024C124.052 27.032 123.268 27.808 122.26 28.352C121.268 28.896 120.14 29.168 118.876 29.168C117.612 29.168 116.476 28.896 115.468 28.352C114.476 27.808 113.692 27.032 113.116 26.024C112.54 25 112.252 23.8 112.252 22.424C112.252 21.048 112.54 19.848 113.116 18.824C113.692 17.8 114.476 17.016 115.468 16.472C116.476 15.928 117.612 15.656 118.876 15.656ZM118.876 17.576C118.092 17.576 117.364 17.752 116.692 18.104C116.036 18.456 115.5 19 115.084 19.736C114.684 20.456 114.484 21.352 114.484 22.424C114.484 23.48 114.684 24.376 115.084 25.112C115.5 25.832 116.036 26.368 116.692 26.72C117.364 27.072 118.092 27.248 118.876 27.248C119.66 27.248 120.38 27.072 121.036 26.72C121.708 26.368 122.244 25.832 122.644 25.112C123.06 24.376 123.268 23.48 123.268 22.424C123.268 21.352 123.06 20.456 122.644 19.736C122.244 19 121.708 18.456 121.036 18.104C120.38 17.752 119.66 17.576 118.876 17.576Z" fill="white"/>
<path d="M130.506 11.24V29H128.322V11.24H130.506Z" fill="white"/>
<path d="M146.471 29H142.747L137.788 21.514V29H134.064V15.605H137.788L142.747 23.186V15.605H146.471V29Z" fill="white"/>
<path d="M160.999 29H157.275L152.316 21.514V29H148.592V15.605H152.316L157.275 23.186V15.605H160.999V29Z" fill="white"/>
<path d="M44 23.2486C44 20.6987 42.6632 18.3448 40.5282 17.0232C40.9997 16.0408 41.2459 14.9637 41.2459 13.8624C41.2459 10.6939 37.3335 8.12634 34.7717 6.7852C34.4981 2.99776 31.3307 0 27.4765 0C25.2966 0 23.3025 0.88043 21.9392 2.40109C20.5638 0.880602 18.6122 0 16.5235 0C13.988 0 11.5888 1.36013 10.2723 3.52498C9.66453 4.52444 9.30179 5.66706 9.22539 6.83435C9.22496 6.84114 9.22402 6.84784 9.22359 6.85463C9.06916 6.93327 8.8819 7.03175 8.65322 7.15524C8.07821 7.46565 7.20973 7.96821 6.33789 8.59951C3.95991 10.3213 2.75413 12.0919 2.75413 13.8624C2.75413 14.9637 3.00025 16.0408 3.4717 17.0232C1.33684 18.3448 0 20.6987 0 23.2486C0 25.7128 1.22315 27.9745 3.23976 29.3254C2.92067 30.159 2.75413 31.0515 2.75413 31.946C2.75413 34.5898 4.15061 36.9854 6.42495 38.2908C7.38083 41.6224 11.1857 44 15.6629 44C17.9793 44 20.247 43.3201 21.9952 42.1213C23.7326 43.3357 25.9563 44 28.3371 44C32.8143 44 36.6193 41.6224 37.5751 38.2908C39.8495 36.9854 41.2459 34.5898 41.2459 31.946C41.2459 31.0515 41.0793 30.1591 40.7602 29.3254C42.7769 27.9745 44 25.7128 44 23.2486ZM15.6629 42.2812C11.8773 42.2812 8.58567 40.2406 8.00645 37.5344C7.95205 37.2802 7.78542 37.0642 7.55339 36.9471C6.16473 36.2462 5.16123 35.0336 4.72123 33.6021C5.4395 33.96 6.21328 34.1421 7.02032 34.1421H7.0229C8.19216 34.1421 9.39228 33.7136 10.2943 32.9718C10.6494 32.6798 10.7021 32.1137 10.4133 31.7618C10.1232 31.4083 9.55599 31.3543 9.20391 31.643C8.58086 32.1534 7.82633 32.4233 7.02109 32.4233C6.05748 32.4233 5.15763 32.0277 4.50665 31.3301C4.58081 30.6473 4.77881 29.9913 5.0991 29.3734C5.31712 28.9527 5.1535 28.435 4.73344 28.2159C2.87384 27.2464 1.71875 25.343 1.71875 23.2486C1.71875 21.0582 3.00816 19.0567 5.00362 18.1497C5.23119 18.0462 5.40255 17.8488 5.47276 17.6089C5.54297 17.3689 5.50524 17.1102 5.36946 16.9004C4.78294 15.9943 4.47288 14.9437 4.47288 13.8624C4.47288 11.825 7.39638 9.79138 9.34802 8.72635C9.70123 10.5133 10.7152 12.134 12.2084 13.2271C12.5714 13.4928 13.1375 13.4127 13.4095 13.0413C13.6898 12.6583 13.6067 12.1205 13.2236 11.8402C11.056 10.2535 10.3155 7.21385 11.5199 4.8137C12.4607 2.93863 14.4244 1.71875 16.5235 1.71875C18.3474 1.71875 20.0354 2.59695 21.0868 4.08005L21.0869 4.16677C21.0835 4.73335 21.0819 5.99053 21.0838 8.8318H16.3031C15.9556 8.8318 15.6423 9.04114 15.5092 9.3622C15.3762 9.68327 15.4497 10.0529 15.6953 10.2987C17.0384 11.6425 17.0384 13.8289 15.6954 15.1727C14.3925 16.4764 12.1241 16.4724 10.8251 15.1727C10.4896 14.837 9.94555 14.8369 9.60979 15.1724C9.27412 15.5079 9.27394 16.0521 9.60953 16.3878C9.74222 16.5205 9.88144 16.6445 10.0254 16.7607L7.84953 18.9953C6.67992 20.17 6.6813 22.0776 7.85366 23.2506C9.00316 24.4007 10.968 24.3956 12.1124 23.2506C12.4479 22.9149 12.4477 22.3708 12.112 22.0353C11.7762 21.6998 11.2323 21.6999 10.8968 22.0355C10.4235 22.5089 9.55849 22.525 9.06941 22.0357C8.5653 21.5313 8.5653 20.7106 9.06941 20.2061C9.07199 20.2035 9.07466 20.2008 9.07723 20.1981C9.07723 20.1981 11.5847 17.623 11.585 17.6227C11.6142 17.5927 12.484 17.8437 12.5933 17.8579C14.1741 18.0624 15.7852 17.5141 16.911 16.3878C18.4859 14.8119 18.8284 12.4627 17.9384 10.5505H21.0853C21.0873 12.7485 21.0908 15.6562 21.0962 19.5046H18.9922V19.2875C18.9922 18.8128 18.6074 18.4281 18.1328 18.4281C17.6582 18.4281 17.2734 18.8128 17.2734 19.2875V21.4403C17.2734 21.9149 17.6582 22.2997 18.1328 22.2997C18.6074 22.2997 18.9922 21.9149 18.9922 21.4403V21.2235H21.0986C21.0992 21.6299 21.1049 25.4564 21.1072 26.9104H18.7018C18.5564 26.5094 18.3239 26.1332 18.003 25.8122C17.4343 25.2431 16.6781 24.9298 15.8738 24.9298C15.0694 24.9298 14.3131 25.2431 13.7444 25.8122C13.4089 26.1479 13.4091 26.692 13.7448 27.0276C14.0805 27.363 14.6245 27.3629 14.9601 27.0273C16.1012 25.8861 17.9717 27.672 16.7874 28.8568C16.4519 29.1925 16.452 29.7366 16.7876 30.0721C17.1114 30.3957 17.6708 30.4042 18.003 30.0719C18.4143 29.6603 18.6809 29.1583 18.8039 28.6292H21.1099C21.1133 30.6086 21.1166 32.4824 21.12 34.1462H14.3777C14.1497 34.1462 13.9311 34.2368 13.7699 34.3981C12.5961 35.5725 12.5961 37.4832 13.7698 38.6576C14.9103 39.7989 16.8942 39.7926 18.0284 38.6577C18.3639 38.3219 18.3638 37.7779 18.0281 37.4424C17.6924 37.1069 17.1485 37.107 16.813 37.4425C16.3298 37.9258 15.4657 37.9231 14.9855 37.4426C14.5587 37.0155 14.4932 36.3616 14.7893 35.865H21.1236C21.1268 37.3326 21.1356 40.3551 21.1369 40.6277C19.6595 41.6824 17.6895 42.2812 15.6629 42.2812ZM39.2666 28.216C38.8466 28.4351 38.683 28.9528 38.901 29.3734C39.3164 30.1751 39.5271 31.0407 39.5271 31.9461C39.5271 34.0718 38.3468 35.9881 36.4467 36.9472C36.2146 37.0643 36.048 37.2803 35.9936 37.5345C35.4143 40.2406 32.1227 42.2812 28.3371 42.2812C26.2835 42.2812 24.3118 41.6826 22.8588 40.6287L22.8518 35.8649H25.958C26.2707 37.1944 27.4655 38.1874 28.8885 38.1874C30.5488 38.1874 31.8996 36.8362 31.8996 35.1753C31.8996 33.5143 30.5488 32.1631 28.8885 32.1631C27.5894 32.1631 26.4798 32.9905 26.0586 34.1461H22.8493L22.8413 28.6291H30.8228C31.1935 29.8726 32.3464 30.782 33.7083 30.782C35.3686 30.782 36.7194 29.4307 36.7194 27.7698C36.7194 26.1088 35.3686 24.7576 33.7083 24.7576C32.3464 24.7576 31.1935 25.667 30.8228 26.9104H22.8388L22.8305 21.2235H24.7119C25.0827 22.4669 26.2356 23.3763 27.5975 23.3763C29.2578 23.3763 30.6085 22.025 30.6085 20.3641C30.6085 18.7032 29.2578 17.3519 27.5975 17.3519C26.2356 17.3519 25.0827 18.2613 24.7119 19.5047H22.828L22.8149 10.5506H25.3251C25.7074 11.7751 26.8516 12.6663 28.2 12.6663C29.8603 12.6663 31.211 11.315 31.211 9.65413C31.211 7.99322 29.8603 6.64194 28.2 6.64194C26.8246 6.64194 25.6626 7.56946 25.3039 8.83188H22.8125L22.8055 4.07249C23.8255 2.59402 25.5532 1.71875 27.4765 1.71875C30.5619 1.71875 33.0721 4.23053 33.0721 7.31784C33.0721 7.84824 33.4896 8.05973 33.6678 8.15005C37.3367 10.0085 39.527 12.1439 39.5271 13.8624C39.5272 16.0024 38.1252 18.5212 35.7792 18.597C35.5498 18.6038 35.3366 18.7001 35.1794 18.8677C35.0221 19.0344 34.9396 19.2535 34.9473 19.483C34.9542 19.7073 35.047 19.917 35.2086 20.0734C35.3693 20.2298 35.5816 20.3157 35.8059 20.3157H35.8084C35.8162 20.3157 35.8247 20.3157 35.8324 20.3149C37.269 20.1529 38.665 19.6107 39.6168 18.4815C41.2547 19.492 42.2812 21.2948 42.2812 23.2486C42.2812 25.343 41.1262 27.2464 39.2666 28.216ZM27.5962 35.1753C27.5962 34.4621 28.1759 33.8818 28.8885 33.8818C29.6011 33.8818 30.1808 34.4621 30.1808 35.1753C30.1808 35.8884 29.6011 36.4687 28.8885 36.4687C28.1759 36.4687 27.5962 35.8884 27.5962 35.1753ZM32.416 27.7697C32.416 27.0565 32.9957 26.4762 33.7083 26.4762C34.4209 26.4762 35.0006 27.0565 35.0006 27.7697C35.0006 28.4829 34.4209 29.0631 33.7083 29.0631C32.9957 29.0631 32.416 28.483 32.416 27.7697ZM26.3052 20.364C26.3052 19.6508 26.8849 19.0706 27.5975 19.0706C28.3101 19.0706 28.8899 19.6508 28.8899 20.364C28.8899 21.0772 28.3101 21.6575 27.5975 21.6575C26.8849 21.6575 26.3052 21.0772 26.3052 20.364ZM26.9076 9.65405C26.9076 8.94085 27.4874 8.3606 28.2 8.3606C28.9126 8.3606 29.4923 8.94085 29.4923 9.65405C29.4923 10.3672 28.9126 10.9475 28.2 10.9475C27.4874 10.9475 26.9076 10.3672 26.9076 9.65405Z" fill="white"/>
<path d="M11.3815 28.4908C11.1426 28.4702 10.9054 28.551 10.7284 28.7126C10.5686 28.8587 10.4706 29.058 10.4525 29.2737C10.4328 29.5032 10.5032 29.7258 10.6519 29.9011C10.7997 30.0764 11.0068 30.1838 11.2354 30.2036C11.2604 30.2053 11.2844 30.2062 11.3093 30.2062C11.5242 30.2062 11.7296 30.1262 11.8886 29.981C12.0484 29.8349 12.1464 29.6355 12.1653 29.4198C12.1653 29.419 12.1653 29.419 12.1644 29.419C12.2039 28.9472 11.8533 28.5304 11.3815 28.4908Z" fill="white"/>
<path d="M33.2819 17.6335C33.2819 17.6335 33.2819 17.6335 33.281 17.6327C33.1203 17.4771 32.908 17.392 32.6846 17.392C32.4491 17.392 32.2291 17.4848 32.0659 17.6541C31.9069 17.8191 31.8209 18.0366 31.8252 18.266C31.8287 18.4955 31.9215 18.7095 32.0865 18.8684C32.0865 18.8684 32.0865 18.8693 32.0873 18.8693C32.248 19.0248 32.4603 19.1108 32.6837 19.1108C32.9192 19.1108 33.1392 19.0171 33.3025 18.8478C33.6308 18.5075 33.6222 17.9635 33.2819 17.6335Z" fill="white"/>
</svg>
