<svg width="20" height="20" viewBox="0 0 20 20" fill="none" xmlns="http://www.w3.org/2000/svg">
<g clip-path="url(#clip0)">
<path d="M19.6065 9.30119L16.3946 7.69535L19.6065 6.08935C20.181 5.80218 20.1816 4.97942 19.6065 4.69179L10.3877 0.0823978C10.1677 -0.0274659 9.90886 -0.0274659 9.68883 0.0823978L0.470041 4.69179C-0.104455 4.97912 -0.105065 5.80187 0.470041 6.08935L3.68188 7.69535L0.470041 9.30119C-0.104455 9.58851 -0.105065 10.4111 0.470041 10.6987L3.68188 12.3047L0.470041 13.9106C-0.104455 14.1979 -0.105065 15.0205 0.470041 15.3081L9.68883 19.9175C9.90841 20.0272 10.1672 20.0277 10.3877 19.9175L19.6065 15.3081C20.181 15.0208 20.1816 14.1982 19.6065 13.9106L16.3946 12.3047L19.6065 10.6987C20.181 10.4116 20.1816 9.58882 19.6065 9.30119ZM10.0383 1.65467L17.5101 5.39065L10.0383 9.12647L2.56646 5.39065L10.0383 1.65467ZM17.5101 14.6094L10.0383 18.3453L2.56646 14.6094L5.42886 13.1782L9.68883 15.3081C9.90856 15.4179 10.1672 15.4183 10.3877 15.3081L14.6477 13.1782L17.5101 14.6094ZM10.0383 13.7359L2.56646 10L5.42886 8.56876L9.68883 10.6987C9.90856 10.8085 10.1672 10.8089 10.3877 10.6987L14.6477 8.56876L17.5101 10L10.0383 13.7359Z" fill="#C2CFE0"/>
</g>
<defs>
<clipPath id="clip0">
<rect width="20" height="20" fill="#C2CFE0"/>
</clipPath>
</defs>
</svg>
